<svg xmlns="http://www.w3.org/2000/svg" viewBox="0 0 24 24" fill="none">
  <path d="M13.98 11.08h.975v2.65a5.115 5.115 0 0 1-1.455.765 5.654 5.654 0 0 1-1.62.225c-.495 0-.966-.075-1.41-.225a3.392 3.392 0 0 1-1.155-.675 3.154 3.154 0 0 1-.78-1.095A3.784 3.784 0 0 1 8.25 11c0-.51.09-.975.27-1.395a3.006 3.006 0 0 1 .78-1.08c.33-.3.72-.525 1.17-.69.45-.165.945-.24 1.485-.24.36 0 .705.045 1.035.135.33.09.63.21.9.36a2.85 2.85 0 0 1 1.335 1.74l-1.065.3a1.995 1.995 0 0 0-.66-.945 1.8 1.8 0 0 0-1.065-.315c-.285 0-.555.045-.81.135a1.92 1.92 0 0 0-.675.405 1.98 1.98 0 0 0-.465.66 2.43 2.43 0 0 0-.18.945c0 .375.06.705.18.99.12.285.285.525.495.72.21.195.45.345.72.45.27.105.555.15.855.15.21 0 .42-.03.63-.09.21-.06.39-.135.54-.225v-1.515zm3.645-2.925h1.065v6.57h-1.065v-6.57z" fill="#0865A6"/>
  <rect x="5" y="5" width="14" height="14" rx="2" stroke="#0865A6" stroke-width="1.5" fill="none"/>
</svg>