<svg xmlns="http://www.w3.org/2000/svg" viewBox="0 0 24 24" fill="none">
  <path d="M8.85 18.35c0 .65 1.45 1.18 3.25 1.18s3.25-.53 3.25-1.18c0-.24-.27-.46-.72-.64-.95.48-2.32.77-3.78.77-1.46 0-2.83-.29-3.78-.77-.45.18-.72.4-.72.64zm6.5-3.53c-.95.48-2.32.77-3.78.77-1.46 0-2.83-.29-3.78-.77-.45.18-.72.4-.72.64 0 .65 1.45 1.18 3.25 1.18s3.25-.53 3.25-1.18c0-.24-.27-.46-.72-.64zm-3.85-6.47c1.8 0 3.25-.53 3.25-1.18S13.3 6 11.5 6 8.25 6.53 8.25 7.17s1.45 1.18 3.25 1.18z" fill="#5382A1"/>
  <path d="M16.72 12.35c.96-.26 1.53-.62 1.53-1.03 0-.84-2.04-1.52-4.56-1.52s-4.56.68-4.56 1.52c0 .41.57.77 1.53 1.03.95-.48 2.32-.77 3.78-.77 1.46 0 2.83.29 3.78.77z" fill="#E76F00"/>
</svg>