<svg xmlns="http://www.w3.org/2000/svg" viewBox="0 0 24 24" fill="none">
  <rect width="24" height="24" fill="#F7DF1E" rx="3"/>
  <path d="M6.72 18.41c.39.72 1.14 1.32 2.28 1.32 1.26 0 2.07-.63 2.07-1.86v-6.66h-2.04v6.63c0 .63-.27.87-.69.87-.45 0-.66-.27-.9-.72l-1.71.9zm5.85-.15c.48.84 1.38 1.56 2.85 1.56 1.59 0 2.79-.78 2.79-2.22 0-1.32-.78-1.89-2.31-2.4l-.42-.18c-.75-.33-1.08-.54-1.08-1.08 0-.42.33-.75.84-.75.51 0 .84.21 1.14.75l1.38-.9c-.54-.93-1.29-1.29-2.52-1.29-1.59 0-2.58.99-2.58 2.28 0 1.32.78 1.89 2.04 2.34l.42.18c.78.33 1.26.54 1.26 1.14 0 .48-.45.84-1.17.84-.81 0-1.23-.42-1.56-1.02l-1.44.87z" fill="#000"/>
</svg>