<svg xmlns="http://www.w3.org/2000/svg" viewBox="0 0 24 24" fill="none">
  <path d="M23.15 12.65c0 5.84-4.73 10.57-10.57 10.57S1.85 18.49 1.85 12.65C1.85 6.81 6.74 2 12.58 2c5.84 0 10.57 4.81 10.57 10.65z" fill="#CE422B"/>
  <path d="M15.96 17.92h-1.32l-.05-.73c-.42.57-1.02.86-1.8.86-1.38 0-2.07-.78-2.07-2.34v-3.45h1.38v3.15c0 .9.33 1.35 1 1.35.66 0 1.17-.45 1.53-1.35v-3.15h1.38v5.66zm-7.68-2.82c0 .48-.09.84-.27 1.08-.18.24-.48.36-.9.36-.42 0-.72-.12-.9-.36-.18-.24-.27-.6-.27-1.08v-2.16c0-.48.09-.84.27-1.08.18-.24.48-.36.9-.36.42 0 .72.12.9.36.18.24.27.6.27 1.08v2.16z" fill="#fff"/>
</svg>